# File created by Blade
# Date/Time:  Tue Apr 07 20:35:32 2015
# Frame Rate: 120.000 fps
#------------------------------------------------------
:FULLY-SPECIFIED
:DEGREES
1003
root 1.480300 33.766765 -3.754324 27.751752 -45.263543 -39.651644
Spine 4.616288 28.487538 24.172334
Head 9.855914 9.677059 -1.645294
LeftShoulder -26.066665 42.922022 13.514355
LeftArm 51.623829 -60.428486 -82.845876
LeftForeArm 3.073826 -0.000000 10.167966
LeftHand 10.938640 -0.000000 9.118819
LeftHandThumb1 -26.253704 0.000000 33.147579
RightShoulder 9.019364 12.443278 -21.969573
RightArm 31.019540 -13.667639 78.507743
RightForeArm -3.077402 -0.000000 15.332625
RightHand 0.744275 -0.000000 12.307618
RightHandThumb1 -24.326973 -0.000000 -32.862282
LeftUpLeg -3.071873 2.928206 20.179103
LeftLeg 12.125603 -0.000000 -0.000000
LeftFoot -12.526736 26.294376 -7.419913
LeftToeBase -7.681164 -0.000000 0.000000
RightUpLeg -67.752044 -47.196507 -22.359796
RightLeg 75.950274 -0.000000 -0.000000
RightFoot 38.871687 -24.926505 0.709477
RightToeBase 30.015280 -0.000000 -0.000000
1004
root 1.485031 33.772767 -3.737074 27.896803 -45.334328 -39.744966
Spine 4.579043 28.532408 24.170613
Head 9.821781 9.759082 -1.688465
LeftShoulder -26.002928 42.891995 13.557219
LeftArm 51.542516 -60.366067 -82.760745
LeftForeArm 3.147505 0.000000 10.351881
LeftHand 10.974578 -0.000000 8.979494
LeftHandThumb1 -26.253704 0.000000 33.147579
RightShoulder 9.017270 12.499044 -21.962623
RightArm 31.025406 -13.449355 78.539107
RightForeArm -3.239213 -0.000000 15.066170
RightHand 0.745779 -0.000000 12.062905
RightHandThumb1 -24.326973 -0.000000 -32.862282
LeftUpLeg -3.080961 3.045385 20.184275
LeftLeg 12.072616 -0.000000 -0.000000
LeftFoot -12.343155 26.172693 -7.318910
LeftToeBase -7.606350 -0.000000 0.000000
RightUpLeg -67.515094 -47.203942 -22.533790
RightLeg 76.049563 -0.000000 -0.000000
RightFoot 38.952306 -24.973851 0.751672
RightToeBase 29.730568 -0.000000 -0.000000
1005
root 1.488711 33.780248 -3.719271 28.052788 -45.412974 -39.851416
Spine 4.545200 28.564210 24.167892
Head 9.785741 9.863724 -1.716779
LeftShoulder -26.035691 42.939033 13.515303
LeftArm 51.591187 -60.240064 -82.730056
LeftForeArm 3.116159 -0.000000 10.495162
LeftHand 10.970287 0.000000 9.128441
LeftHandThumb1 -26.253704 0.000000 33.147579
RightShoulder 9.032920 12.532212 -21.955222
RightArm 31.034785 -13.317106 78.525876
RightForeArm -3.205804 -0.000000 14.884219
RightHand 0.759099 0.000000 12.201026
RightHandThumb1 -24.326973 -0.000000 -32.862282
LeftUpLeg -3.036078 3.158228 20.195425
LeftLeg 11.937969 -0.000000 -0.000000
LeftFoot -12.085941 26.111876 -7.134115
LeftToeBase -7.692049 -0.000000 0.000000
RightUpLeg -67.323811 -47.220554 -22.666188
RightLeg 76.197076 -0.000000 -0.000000
RightFoot 38.943965 -24.898251 0.768622
RightToeBase 30.109019 -0.000000 -0.000000
1006
root 1.492226 33.788859 -3.699055 28.201709 -45.484085 -39.950345
Spine 4.502163 28.558592 24.166178
Head 9.760575 9.986200 -1.752240
LeftShoulder -26.126367 42.991109 13.416780
LeftArm 51.685103 -60.161627 -82.721708
LeftForeArm 3.190826 -0.000000 10.628115
LeftHand 11.016822 -0.000000 9.107397
LeftHandThumb1 -26.253704 0.000000 33.147579
RightShoulder 9.074311 12.534099 -21.953853
RightArm 31.032157 -13.141058 78.531363
RightForeArm -3.289172 -0.000000 14.776097
RightHand 0.846438 -0.000000 12.142735
RightHandThumb1 -24.326973 -0.000000 -32.862282
LeftUpLeg -2.945354 3.193239 20.196763
LeftLeg 11.706988 -0.000000 -0.000000
LeftFoot -11.801947 26.142926 -6.942658
LeftToeBase -7.791643 -0.000000 0.000000
RightUpLeg -67.137444 -47.266076 -22.781917
RightLeg 76.331526 -0.000000 -0.000000
RightFoot 39.012190 -24.878642 0.716596
RightToeBase 29.793573 -0.000000 -0.000000
1007
root 1.495330 33.798068 -3.677444 28.365859 -45.590821 -40.050066
Spine 4.447843 28.585536 24.144438
Head 9.778833 10.092333 -1.782521
LeftShoulder -26.124384 42.991557 13.405415
LeftArm 51.538676 -60.117260 -82.532289
LeftForeArm 3.236806 0.000000 10.763017
LeftHand 11.050405 -0.000000 9.094510
LeftHandThumb1 -26.253704 0.000000 33.147579
RightShoulder 9.113092 12.531243 -21.936800
RightArm 31.036042 -13.074572 78.484971
RightForeArm -3.204407 -0.000000 14.714188
RightHand 0.906857 -0.000000 12.237358
RightHandThumb1 -24.326973 -0.000000 -32.862282
LeftUpLeg -2.836716 3.263740 20.172846
LeftLeg 11.450603 -0.000000 -0.000000
LeftFoot -11.499062 26.205397 -6.723488
LeftToeBase -7.948251 -0.000000 0.000000
RightUpLeg -66.999312 -47.283729 -22.888631
RightLeg 76.490333 -0.000000 -0.000000
RightFoot 38.993118 -24.843289 0.762847
RightToeBase 29.842963 -0.000000 -0.000000
1008
root 1.502089 33.808886 -3.667142 28.638925 -45.661174 -40.198596
Spine 4.328766 28.669883 24.118471
Head 9.770441 10.136784 -1.793839
LeftShoulder -26.115693 43.002010 13.403512
LeftArm 51.501790 -60.074862 -82.419846
LeftForeArm 3.327977 -0.000000 10.882071
LeftHand 11.089475 -0.000000 9.014789
LeftHandThumb1 -26.253704 0.000000 33.147579
RightShoulder 9.089396 12.499569 -21.926764
RightArm 31.051121 -12.932341 78.478949
RightForeArm -3.377798 -0.000000 14.697286
RightHand 0.890935 -0.000000 11.888762
RightHandThumb1 -24.326973 -0.000000 -32.862282
LeftUpLeg -2.844734 3.346790 20.203957
LeftLeg 11.226168 -0.000000 -0.000000
LeftFoot -11.236760 26.291500 -6.550644
LeftToeBase -8.112550 -0.000000 0.000000
RightUpLeg -67.004345 -47.313514 -22.850088
RightLeg 76.682815 -0.000000 -0.000000
RightFoot 38.954213 -24.894807 0.848044
RightToeBase 29.951550 -0.000000 -0.000000
